<?xml version="1.0" encoding="UTF-8"?>
<svg xmlns="http://www.w3.org/2000/svg" xmlns:xlink="http://www.w3.org/1999/xlink" viewBox="0 0 500 500">
  <defs>
    <style>
      .cls-1 {
        fill: #ffdb46;
      }

      .cls-2 {
        fill: #6bbde3;
      }

      .cls-3 {
        fill: #bd463b;
      }

      .cls-4 {
        fill: #e94b91;
      }

      .cls-5 {
        fill: #fff;
      }

      .cls-6 {
        fill: none;
      }

      .cls-7 {
        mix-blend-mode: color-burn;
      }

      .cls-8 {
        fill: #73c7d2;
      }

      .cls-9 {
        fill: #003d50;
      }

      .cls-10 {
        isolation: isolate;
      }

      .cls-11 {
        fill: #a9c861;
      }

      .cls-12 {
        fill: #e6007e;
      }

      .cls-13 {
        opacity: .8;
      }

      .cls-13, .cls-14 {
        mix-blend-mode: multiply;
      }

      .cls-15 {
        fill: #efae38;
      }

      .cls-16 {
        mix-blend-mode: lighten;
        opacity: .68;
      }

      .cls-17 {
        fill: #366db4;
      }

      .cls-18 {
        fill: #e48d55;
      }

      .cls-19 {
        clip-path: url(#clippath);
      }
    </style>
    <clipPath id="clippath">
      <rect class="cls-6" width="500" height="500"/>
    </clipPath>
  </defs>
  <g class="cls-10">
    <g id="Capa_2" data-name="Capa 2">
      <g id="Background_01" data-name="Background 01">
        <g class="cls-19">
          <path class="cls-4" d="M237.8,91.48v31.29c0,6.79-5.5,12.29-12.29,12.29h0c-6.79,0-12.29,5.5-12.29,12.29v166.13c0,6.79,5.5,12.29,12.29,12.29h0c6.79,0,12.29,5.5,12.29,12.29v39.83c0,6.79,5.5,12.29,12.29,12.29h.98c6.79,0,12.29-5.5,12.29-12.29V91.48c0-6.79-5.5-12.29-12.29-12.29h-.98c-6.79,0-12.29,5.5-12.29,12.29Z"/>
          <path class="cls-3" d="M171.61,85.64v-51.6c0-6.52-4.75-12.25-11.22-13.02-7.72-.93-14.34,5.14-14.34,12.69h0c0,6.79-5.5,12.29-12.29,12.29h0c-6.79,0-12.29,5.5-12.29,12.29v107.53c0,6.79,5.5,12.29,12.29,12.29h.98c6.79,0,12.29-5.5,12.29-12.29v-.49c0-6.79,5.5-12.29,12.29-12.29h0c6.79,0,12.29,5.5,12.29,12.29v52.92c0,6.79,5.5,12.29,12.29,12.29h.98c6.79,0,12.29-5.5,12.29-12.29v-107.04c0-7.06-5.72-12.78-12.78-12.78h0c-7.06,0-12.78-5.72-12.78-12.78Z"/>
          <path class="cls-1" d="M449.06-12V4.6c0,6.79-5.5,12.29-12.29,12.29s-12.29,5.5-12.29,12.29v107.53c0,6.79,5.5,12.29,12.29,12.29h.98c6.79,0,12.29-5.5,12.29-12.29v-34.9c0-6.79,5.5-12.29,12.29-12.29s12.29-5.5,12.29-12.29V-12h-25.56Z"/>
          <rect class="cls-11" x="73.47" y="65" width="25.56" height="190.7" rx="12.78" ry="12.78"/>
          <path class="cls-2" d="M406.66,224.8h0c-7.03,0-12.78-5.75-12.78-12.78v-93.38c0-7.03,5.75-12.78,12.78-12.78h0c7.03,0,12.78,5.75,12.78,12.78v93.38c0,7.03-5.75,12.78-12.78,12.78Z"/>
          <path class="cls-2" d="M406.66,65.52h0c-7.03,0-12.78-5.75-12.78-12.78V18.82c0-7.03,5.75-12.78,12.78-12.78h0c7.03,0,12.78,5.75,12.78,12.78v33.91c0,7.03-5.75,12.78-12.78,12.78Z"/>
          <g class="cls-14">
            <path class="cls-18" d="M55.72-12h-11.34c-4.2,2.1-7.11,6.44-7.11,11.43h0c0,6.79-5.5,12.29-12.29,12.29h0c-6.79,0-12.29,5.5-12.29,12.29v107.53c0,6.79,5.5,12.29,12.29,12.29h.98c6.79,0,12.29-5.5,12.29-12.29v-.49c0-6.79,5.5-12.29,12.29-12.29s12.29-5.5,12.29-12.29V-.57c0-4.99-2.91-9.33-7.11-11.43Z"/>
          </g>
          <path class="cls-2" d="M184.39,285.3h0c-7.03,0-12.78-5.75-12.78-12.78v-15.07c0-7.03,5.75-12.78,12.78-12.78h0c7.03,0,12.78,5.75,12.78,12.78v15.07c0,7.03-5.75,12.78-12.78,12.78Z"/>
          <g class="cls-14">
            <path class="cls-2" d="M463.05-12v126.57c0,6.79,5.5,12.29,12.29,12.29s12.29,5.5,12.29,12.29v39.83c0,6.79,5.5,12.29,12.29,12.29h.98c6.79,0,12.29-5.5,12.29-12.29V-12h-50.13Z"/>
          </g>
          <g class="cls-14">
            <path class="cls-1" d="M73.48-12v52.92c0,7.03,5.75,12.78,12.78,12.78h0c7.03,0,12.78-5.75,12.78-12.78V-12h-25.56Z"/>
          </g>
          <g class="cls-14">
            <rect class="cls-17" x="411.71" y="152.87" width="25.56" height="59.47" rx="12.78" ry="12.78"/>
          </g>
          <g class="cls-14">
            <path class="cls-17" d="M-30.01-12V125.72c0,6.79,5.5,12.29,12.29,12.29h.49c6.79,0,12.29,5.5,12.29,12.29v14.91c0,7.06,5.72,12.78,12.78,12.78s12.78-5.72,12.78-12.78v-68.65c0-6.79,5.5-12.29,12.29-12.29s12.29-5.5,12.29-12.29V-12H-30.01Z"/>
          </g>
          <g class="cls-14">
            <rect class="cls-4" x="37.27" y="157.29" width="25.56" height="40.63" rx="12.78" ry="12.78"/>
          </g>
          <g class="cls-14">
            <rect class="cls-4" x="462.05" y="149.87" width="25.56" height="57.55" rx="12.78" ry="12.78"/>
          </g>
          <g class="cls-13">
            <rect class="cls-12" x="411.71" y="40.34" width="25.56" height="26.7" rx="12.78" ry="12.78"/>
          </g>
          <g class="cls-7">
            <rect class="cls-8" x="448.58" y="195.74" width="26" height="77.37" rx="13" ry="13"/>
          </g>
          <g class="cls-14">
            <path class="cls-15" d="M336.79,165.81v51.6c0,6.52,4.75,12.25,11.22,13.02,7.72.93,14.34-5.14,14.34-12.69h0c0-6.79,5.5-12.29,12.29-12.29h0c6.79,0,12.29-5.5,12.29-12.29v-107.53c0-6.79-5.5-12.29-12.29-12.29h-.98c-6.79,0-12.29,5.5-12.29,12.29v.49c0,6.79-5.5,12.29-12.29,12.29h0c-6.79,0-12.29-5.5-12.29-12.29v-52.92c0-6.79-5.5-12.29-12.29-12.29h-.98c-6.79,0-12.29,5.5-12.29,12.29v107.04c0,7.06,5.72,12.78,12.78,12.78h0c7.06,0,12.78,5.72,12.78,12.78Z"/>
          </g>
          <g class="cls-16">
            <path class="cls-5" d="M111.89-12c-.69,1.57-1.08,3.29-1.08,5.1V63.29c0,7.03,5.75,12.78,12.78,12.78h0c7.03,0,12.78-5.75,12.78-12.78V-6.9c0-1.81-.39-3.54-1.08-5.1h-23.4Z"/>
          </g>
          <g class="cls-16">
            <path class="cls-5" d="M263.35,308.08h0c-7.03,0-12.78-5.75-12.78-12.78v-70.19c0-7.03,5.75-12.78,12.78-12.78h0c7.03,0,12.78,5.75,12.78,12.78v70.19c0,7.03-5.75,12.78-12.78,12.78Z"/>
          </g>
          <g class="cls-16">
            <path class="cls-5" d="M382.15-12c-.67,1.55-1.05,3.25-1.05,5.04v163.13c0,7.03,5.75,12.78,12.78,12.78s12.78-5.75,12.78-12.78V-6.96c0-1.79-.38-3.49-1.05-5.04h-23.47Z"/>
          </g>
          <path class="cls-5" d="M237.29-12v233.67c0,.55.45,1,1,1s1-.45,1-1V-12h-2Z"/>
          <path class="cls-5" d="M238.29,243.72c-.55,0-1-.45-1-1v-8.03c0-.55.45-1,1-1s1,.45,1,1v8.03c0,.55-.45,1-1,1Z"/>
          <path class="cls-9" d="M295.29,245.14c-.55,0-1-.45-1-1v-72.55c0-.55.45-1,1-1s1,.45,1,1v72.55c0,.55-.45,1-1,1Z"/>
          <path class="cls-9" d="M295.29,266.19c-.55,0-1-.45-1-1v-8.03c0-.55.45-1,1-1s1,.45,1,1v8.03c0,.55-.45,1-1,1Z"/>
          <path class="cls-9" d="M372.58,93.8c-.55,0-1-.45-1-1V-3.5c0-.55.45-1,1-1s1,.45,1,1v96.3c0,.55-.45,1-1,1Z"/>
          <path class="cls-9" d="M372.58,106.38c-.55,0-1-.45-1-1v-8.03c0-.55.45-1,1-1s1,.45,1,1v8.03c0,.55-.45,1-1,1Z"/>
          <path class="cls-9" d="M372.58,118.78c-.55,0-1-.45-1-1v-6.03c0-.55.45-1,1-1s1,.45,1,1v6.03c0,.55-.45,1-1,1Z"/>
          <path class="cls-9" d="M120.48-12v47.66c0,.55.45,1,1,1s1-.45,1-1V-12h-2Z"/>
          <path class="cls-9" d="M121.48,49.24c-.55,0-1-.45-1-1v-8.03c0-.55.45-1,1-1s1,.45,1,1v8.03c0,.55-.45,1-1,1Z"/>
          <path class="cls-9" d="M121.48,61.64c-.55,0-1-.45-1-1v-3.02c0-.55.45-1,1-1s1,.45,1,1v3.02c0,.55-.45,1-1,1Z"/>
          <path class="cls-5" d="M348.08-12V121.08c0,.55.45,1,1,1s1-.45,1-1V-12h-2Z"/>
          <path class="cls-5" d="M349.08,158.2c-.55,0-1-.45-1-1v-8.21c0-.55.45-1,1-1s1,.45,1,1v8.21c0,.55-.45,1-1,1Z"/>
          <path class="cls-5" d="M151.86,105.46c-.55,0-1-.45-1-1v-8.21c0-.55.45-1,1-1s1,.45,1,1v8.21c0,.55-.45,1-1,1Z"/>
          <path class="cls-5" d="M151.86,122.92c-.55,0-1-.45-1-1v-4.1c0-.55.45-1,1-1s1,.45,1,1v4.1c0,.55-.45,1-1,1Z"/>
          <path class="cls-5" d="M449.55,71.76c-.55,0-1-.45-1-1v-4.1c0-.55.45-1,1-1s1,.45,1,1v4.1c0,.55-.45,1-1,1Z"/>
          <path class="cls-5" d="M349.08,140.14c-.55,0-1-.45-1-1v-8.21c0-.55.45-1,1-1s1,.45,1,1v8.21c0,.55-.45,1-1,1Z"/>
          <path class="cls-5" d="M86.25,179.11c-.55,0-1-.45-1-1v-8.21c0-.55.45-1,1-1s1,.45,1,1v8.21c0,.55-.45,1-1,1Z"/>
          <path class="cls-5" d="M85.25-12v166.34c0,.55.45,1,1,1s1-.45,1-1V-12h-2Z"/>
          <path class="cls-5" d="M150.86-12v98.42c0,.55.45,1,1,1s1-.45,1-1V-12h-2Z"/>
          <path class="cls-5" d="M448.55-12V59.09c0,.55.45,1,1,1s1-.45,1-1V-12h-2Z"/>
          <g>
            <path class="cls-5" d="M492.44,134.33c-.55,0-1-.45-1-1v-8.21c0-.55.45-1,1-1s1,.45,1,1v8.21c0,.55-.45,1-1,1Z"/>
            <path class="cls-5" d="M491.44-12v125.12c0,.55.45,1,1,1s1-.45,1-1V-12h-2Z"/>
          </g>
          <path class="cls-5" d="M114.15,166.02c0,1.62-1.31,2.93-2.93,2.93s-2.93-1.31-2.93-2.93,1.31-2.93,2.93-2.93,2.93,1.31,2.93,2.93Z"/>
          <path class="cls-5" d="M114.15,175.62c0,1.62-1.31,2.93-2.93,2.93s-2.93-1.31-2.93-2.93,1.31-2.93,2.93-2.93,2.93,1.31,2.93,2.93Z"/>
          <path class="cls-5" d="M114.15,185.21c0,1.62-1.31,2.93-2.93,2.93s-2.93-1.31-2.93-2.93,1.31-2.93,2.93-2.93,2.93,1.31,2.93,2.93Z"/>
          <path class="cls-5" d="M114.15,194.81c0,1.62-1.31,2.93-2.93,2.93s-2.93-1.31-2.93-2.93,1.31-2.93,2.93-2.93,2.93,1.31,2.93,2.93Z"/>
          <path class="cls-5" d="M114.15,204.41c0,1.62-1.31,2.93-2.93,2.93s-2.93-1.31-2.93-2.93,1.31-2.93,2.93-2.93,2.93,1.31,2.93,2.93Z"/>
          <path class="cls-5" d="M114.15,117.89c0,1.62-1.31,2.93-2.93,2.93s-2.93-1.31-2.93-2.93,1.31-2.93,2.93-2.93,2.93,1.31,2.93,2.93Z"/>
          <path class="cls-5" d="M114.15,127.48c0,1.62-1.31,2.93-2.93,2.93s-2.93-1.31-2.93-2.93,1.31-2.93,2.93-2.93,2.93,1.31,2.93,2.93Z"/>
          <path class="cls-5" d="M114.15,137.08c0,1.62-1.31,2.93-2.93,2.93s-2.93-1.31-2.93-2.93,1.31-2.93,2.93-2.93,2.93,1.31,2.93,2.93Z"/>
          <path class="cls-5" d="M114.15,146.68c0,1.62-1.31,2.93-2.93,2.93s-2.93-1.31-2.93-2.93,1.31-2.93,2.93-2.93,2.93,1.31,2.93,2.93Z"/>
          <path class="cls-5" d="M114.15,156.28c0,1.62-1.31,2.93-2.93,2.93s-2.93-1.31-2.93-2.93,1.31-2.93,2.93-2.93,2.93,1.31,2.93,2.93Z"/>
          <path class="cls-5" d="M289.39,103.82c0,1.62-1.31,2.93-2.93,2.93s-2.93-1.31-2.93-2.93,1.31-2.93,2.93-2.93,2.93,1.31,2.93,2.93Z"/>
          <path class="cls-5" d="M289.39,113.42c0,1.62-1.31,2.93-2.93,2.93s-2.93-1.31-2.93-2.93,1.31-2.93,2.93-2.93,2.93,1.31,2.93,2.93Z"/>
          <path class="cls-5" d="M289.39,123.02c0,1.62-1.31,2.93-2.93,2.93s-2.93-1.31-2.93-2.93,1.31-2.93,2.93-2.93,2.93,1.31,2.93,2.93Z"/>
          <path class="cls-5" d="M289.39,132.61c0,1.62-1.31,2.93-2.93,2.93s-2.93-1.31-2.93-2.93,1.31-2.93,2.93-2.93,2.93,1.31,2.93,2.93Z"/>
          <path class="cls-5" d="M289.39,142.21c0,1.62-1.31,2.93-2.93,2.93s-2.93-1.31-2.93-2.93,1.31-2.93,2.93-2.93,2.93,1.31,2.93,2.93Z"/>
          <path class="cls-5" d="M289.39,55.69c0,1.62-1.31,2.93-2.93,2.93s-2.93-1.31-2.93-2.93,1.31-2.93,2.93-2.93,2.93,1.31,2.93,2.93Z"/>
          <path class="cls-5" d="M289.39,65.28c0,1.62-1.31,2.93-2.93,2.93s-2.93-1.31-2.93-2.93,1.31-2.93,2.93-2.93,2.93,1.31,2.93,2.93Z"/>
          <path class="cls-5" d="M289.39,74.88c0,1.62-1.31,2.93-2.93,2.93s-2.93-1.31-2.93-2.93,1.31-2.93,2.93-2.93,2.93,1.31,2.93,2.93Z"/>
          <path class="cls-5" d="M289.39,84.48c0,1.62-1.31,2.93-2.93,2.93s-2.93-1.31-2.93-2.93,1.31-2.93,2.93-2.93,2.93,1.31,2.93,2.93Z"/>
          <path class="cls-5" d="M289.39,94.08c0,1.62-1.31,2.93-2.93,2.93s-2.93-1.31-2.93-2.93,1.31-2.93,2.93-2.93,2.93,1.31,2.93,2.93Z"/>
          <path class="cls-5" d="M439.86,143.2c0,1.62-1.31,2.93-2.93,2.93s-2.93-1.31-2.93-2.93,1.31-2.93,2.93-2.93,2.93,1.31,2.93,2.93Z"/>
          <path class="cls-5" d="M439.86,152.8c0,1.62-1.31,2.93-2.93,2.93s-2.93-1.31-2.93-2.93,1.31-2.93,2.93-2.93,2.93,1.31,2.93,2.93Z"/>
          <path class="cls-5" d="M439.86,162.4c0,1.62-1.31,2.93-2.93,2.93s-2.93-1.31-2.93-2.93,1.31-2.93,2.93-2.93,2.93,1.31,2.93,2.93Z"/>
          <path class="cls-5" d="M439.86,172c0,1.62-1.31,2.93-2.93,2.93s-2.93-1.31-2.93-2.93,1.31-2.93,2.93-2.93,2.93,1.31,2.93,2.93Z"/>
          <path class="cls-5" d="M439.86,181.6c0,1.62-1.31,2.93-2.93,2.93s-2.93-1.31-2.93-2.93,1.31-2.93,2.93-2.93,2.93,1.31,2.93,2.93Z"/>
          <path class="cls-5" d="M256.52,319.27c0,1.62-1.31,2.93-2.93,2.93s-2.93-1.31-2.93-2.93,1.31-2.93,2.93-2.93,2.93,1.31,2.93,2.93Z"/>
          <path class="cls-5" d="M256.52,328.87c0,1.62-1.31,2.93-2.93,2.93s-2.93-1.31-2.93-2.93,1.31-2.93,2.93-2.93,2.93,1.31,2.93,2.93Z"/>
          <path class="cls-5" d="M256.52,338.47c0,1.62-1.31,2.93-2.93,2.93s-2.93-1.31-2.93-2.93,1.31-2.93,2.93-2.93,2.93,1.31,2.93,2.93Z"/>
          <path class="cls-5" d="M256.52,348.06c0,1.62-1.31,2.93-2.93,2.93s-2.93-1.31-2.93-2.93,1.31-2.93,2.93-2.93,2.93,1.31,2.93,2.93Z"/>
          <path class="cls-5" d="M15.62,10.85c0,1.62-1.31,2.93-2.93,2.93s-2.93-1.31-2.93-2.93,1.31-2.93,2.93-2.93,2.93,1.31,2.93,2.93Z"/>
          <path class="cls-5" d="M15.62,20.45c0,1.62-1.31,2.93-2.93,2.93s-2.93-1.31-2.93-2.93,1.31-2.93,2.93-2.93,2.93,1.31,2.93,2.93Z"/>
          <path class="cls-5" d="M15.62,30.04c0,1.62-1.31,2.93-2.93,2.93s-2.93-1.31-2.93-2.93,1.31-2.93,2.93-2.93,2.93,1.31,2.93,2.93Z"/>
          <path class="cls-5" d="M15.62,39.64c0,1.62-1.31,2.93-2.93,2.93s-2.93-1.31-2.93-2.93,1.31-2.93,2.93-2.93,2.93,1.31,2.93,2.93Z"/>
          <path class="cls-5" d="M439.86,95.07c0,1.62-1.31,2.93-2.93,2.93s-2.93-1.31-2.93-2.93,1.31-2.93,2.93-2.93,2.93,1.31,2.93,2.93Z"/>
          <path class="cls-5" d="M439.86,104.67c0,1.62-1.31,2.93-2.93,2.93s-2.93-1.31-2.93-2.93,1.31-2.93,2.93-2.93,2.93,1.31,2.93,2.93Z"/>
          <path class="cls-5" d="M439.86,114.27c0,1.62-1.31,2.93-2.93,2.93s-2.93-1.31-2.93-2.93,1.31-2.93,2.93-2.93,2.93,1.31,2.93,2.93Z"/>
          <path class="cls-5" d="M439.86,123.86c0,1.62-1.31,2.93-2.93,2.93s-2.93-1.31-2.93-2.93,1.31-2.93,2.93-2.93,2.93,1.31,2.93,2.93Z"/>
          <path class="cls-5" d="M439.86,133.46c0,1.62-1.31,2.93-2.93,2.93s-2.93-1.31-2.93-2.93,1.31-2.93,2.93-2.93,2.93,1.31,2.93,2.93Z"/>
          <path class="cls-5" d="M85.02,230.3c-4.76,0-8.63-3.87-8.63-8.63s3.87-8.63,8.63-8.63,8.63,3.87,8.63,8.63-3.87,8.63-8.63,8.63ZM85.02,215.04c-3.66,0-6.63,2.97-6.63,6.63s2.97,6.63,6.63,6.63,6.63-2.97,6.63-6.63-2.97-6.63-6.63-6.63Z"/>
          <path class="cls-5" d="M262.37,152.45c-4.76,0-8.63-3.87-8.63-8.63s3.87-8.63,8.63-8.63,8.63,3.87,8.63,8.63-3.87,8.63-8.63,8.63ZM262.37,137.19c-3.66,0-6.63,2.97-6.63,6.63s2.97,6.63,6.63,6.63,6.63-2.97,6.63-6.63-2.97-6.63-6.63-6.63Z"/>
          <path class="cls-5" d="M336.84,208.1c-4.76,0-8.63-3.87-8.63-8.63s3.87-8.63,8.63-8.63,8.63,3.87,8.63,8.63-3.87,8.63-8.63,8.63ZM336.84,192.84c-3.66,0-6.63,2.97-6.63,6.63s2.97,6.63,6.63,6.63,6.63-2.97,6.63-6.63-2.97-6.63-6.63-6.63Z"/>
          <path class="cls-5" d="M462.05,99.95c-4.76,0-8.63-3.87-8.63-8.63s3.87-8.63,8.63-8.63,8.63,3.87,8.63,8.63-3.87,8.63-8.63,8.63ZM462.05,84.69c-3.66,0-6.63,2.97-6.63,6.63s2.97,6.63,6.63,6.63,6.63-2.97,6.63-6.63-2.97-6.63-6.63-6.63Z"/>
          <path class="cls-5" d="M45.19,62.33c-4.76,0-8.63-3.87-8.63-8.63s3.87-8.63,8.63-8.63,8.63,3.87,8.63,8.63-3.87,8.63-8.63,8.63ZM45.19,47.06c-3.66,0-6.63,2.97-6.63,6.63s2.97,6.63,6.63,6.63,6.63-2.97,6.63-6.63-2.97-6.63-6.63-6.63Z"/>
          <g>
            <path class="cls-9" d="M171.45,139.75l-9.38-9.38c-.39-.39-.39-1.02,0-1.41.39-.39,1.02-.39,1.41,0l7.96,7.96,8.29-8.29c.39-.39,1.02-.39,1.41,0,.39.39.39,1.02,0,1.41l-9.7,9.7Z"/>
            <path class="cls-9" d="M171.45,131.24l-9.38-9.38c-.39-.39-.39-1.02,0-1.41.39-.39,1.02-.39,1.41,0l7.96,7.96,8.29-8.29c.39-.39,1.02-.39,1.41,0,.39.39.39,1.02,0,1.41l-9.7,9.7Z"/>
            <path class="cls-9" d="M171.45,122.74l-9.38-9.38c-.39-.39-.39-1.02,0-1.41s1.02-.39,1.41,0l7.96,7.96,8.29-8.29c.39-.39,1.02-.39,1.41,0,.39.39.39,1.02,0,1.41l-9.7,9.7Z"/>
            <path class="cls-9" d="M171.45,114.23l-9.38-9.38c-.39-.39-.39-1.02,0-1.41s1.02-.39,1.41,0l7.96,7.96,8.29-8.29c.39-.39,1.02-.39,1.41,0,.39.39.39,1.02,0,1.41l-9.7,9.7Z"/>
          </g>
          <g>
            <path class="cls-9" d="M171.45,173.01l-9.38-9.38c-.39-.39-.39-1.02,0-1.41s1.02-.39,1.41,0l7.96,7.96,8.29-8.29c.39-.39,1.02-.39,1.41,0,.39.39.39,1.02,0,1.41l-9.7,9.7Z"/>
            <path class="cls-9" d="M171.45,164.5l-9.38-9.38c-.39-.39-.39-1.02,0-1.41.39-.39,1.02-.39,1.41,0l7.96,7.96,8.29-8.29c.39-.39,1.02-.39,1.41,0,.39.39.39,1.02,0,1.41l-9.7,9.7Z"/>
            <path class="cls-9" d="M171.45,156l-9.38-9.38c-.39-.39-.39-1.02,0-1.41.39-.39,1.02-.39,1.41,0l7.96,7.96,8.29-8.29c.39-.39,1.02-.39,1.41,0,.39.39.39,1.02,0,1.41l-9.7,9.7Z"/>
            <path class="cls-9" d="M171.45,147.49l-9.38-9.38c-.39-.39-.39-1.02,0-1.41.39-.39,1.02-.39,1.41,0l7.96,7.96,8.29-8.29c.39-.39,1.02-.39,1.41,0,.39.39.39,1.02,0,1.41l-9.7,9.7Z"/>
          </g>
          <g>
            <path class="cls-9" d="M393.72,240.34l-9.38-9.38c-.39-.39-.39-1.02,0-1.41s1.02-.39,1.41,0l7.96,7.96,8.29-8.29c.39-.39,1.02-.39,1.41,0,.39.39.39,1.02,0,1.41l-9.7,9.7Z"/>
            <path class="cls-9" d="M393.72,231.83l-9.38-9.38c-.39-.39-.39-1.02,0-1.41s1.02-.39,1.41,0l7.96,7.96,8.29-8.29c.39-.39,1.02-.39,1.41,0,.39.39.39,1.02,0,1.41l-9.7,9.7Z"/>
            <path class="cls-9" d="M393.72,223.33l-9.38-9.38c-.39-.39-.39-1.02,0-1.41.39-.39,1.02-.39,1.41,0l7.96,7.96,8.29-8.29c.39-.39,1.02-.39,1.41,0,.39.39.39,1.02,0,1.41l-9.7,9.7Z"/>
            <path class="cls-9" d="M393.72,214.82l-9.38-9.38c-.39-.39-.39-1.02,0-1.41.39-.39,1.02-.39,1.41,0l7.96,7.96,8.29-8.29c.39-.39,1.02-.39,1.41,0s.39,1.02,0,1.41l-9.7,9.7Z"/>
          </g>
          <g>
            <path class="cls-9" d="M37.1,176.01l-9.38-9.38c-.39-.39-.39-1.02,0-1.41.39-.39,1.02-.39,1.41,0l7.96,7.96,8.29-8.29c.39-.39,1.02-.39,1.41,0,.39.39.39,1.02,0,1.41l-9.7,9.7Z"/>
            <path class="cls-9" d="M37.1,167.51l-9.38-9.38c-.39-.39-.39-1.02,0-1.41.39-.39,1.02-.39,1.41,0l7.96,7.96,8.29-8.29c.39-.39,1.02-.39,1.41,0,.39.39.39,1.02,0,1.41l-9.7,9.7Z"/>
            <path class="cls-9" d="M37.1,159l-9.38-9.38c-.39-.39-.39-1.02,0-1.41.39-.39,1.02-.39,1.41,0l7.96,7.96,8.29-8.29c.39-.39,1.02-.39,1.41,0,.39.39.39,1.02,0,1.41l-9.7,9.7Z"/>
          </g>
          <g>
            <path class="cls-9" d="M286.29,35.65l-9.38-9.38c-.39-.39-.39-1.02,0-1.41s1.02-.39,1.41,0l7.96,7.96,8.29-8.29c.39-.39,1.02-.39,1.41,0,.39.39.39,1.02,0,1.41l-9.7,9.7Z"/>
            <path class="cls-9" d="M286.29,27.15l-9.38-9.38c-.39-.39-.39-1.02,0-1.41.39-.39,1.02-.39,1.41,0l7.96,7.96,8.29-8.29c.39-.39,1.02-.39,1.41,0,.39.39.39,1.02,0,1.41l-9.7,9.7Z"/>
          </g>
          <g>
            <path class="cls-9" d="M177.04,46.31c-.26,0-.53-.1-.72-.31l-10.86-11.33c-.38-.4-.37-1.03.03-1.41.4-.38,1.03-.37,1.41.03l10.86,11.33c.38.4.37,1.03-.03,1.41-.19.19-.44.28-.69.28Z"/>
            <path class="cls-9" d="M166.18,46.31c-.25,0-.5-.09-.69-.28-.4-.38-.41-1.02-.03-1.41l10.86-11.33c.38-.4,1.01-.41,1.41-.03.4.38.41,1.02.03,1.41l-10.86,11.33c-.2.2-.46.31-.72.31Z"/>
          </g>
          <g>
            <path class="cls-5" d="M329.49,114.99c-.26,0-.53-.1-.72-.31l-10.86-11.33c-.38-.4-.37-1.03.03-1.41.4-.38,1.03-.37,1.41.03l10.86,11.33c.38.4.37,1.03-.03,1.41-.19.19-.44.28-.69.28Z"/>
            <path class="cls-5" d="M318.63,114.99c-.25,0-.5-.09-.69-.28-.4-.38-.41-1.02-.03-1.41l10.86-11.33c.38-.4,1.01-.41,1.41-.03.4.38.41,1.02.03,1.41l-10.86,11.33c-.2.21-.46.31-.72.31Z"/>
          </g>
          <g>
            <path class="cls-9" d="M469.63,145c-.26,0-.53-.1-.72-.31l-10.86-11.33c-.38-.4-.37-1.03.03-1.41.4-.38,1.03-.37,1.41.03l10.86,11.33c.38.4.37,1.03-.03,1.41-.19.19-.44.28-.69.28Z"/>
            <path class="cls-9" d="M458.77,145c-.25,0-.5-.09-.69-.28-.4-.38-.41-1.02-.03-1.41l10.86-11.33c.38-.4,1.02-.41,1.41-.03.4.38.41,1.02.03,1.41l-10.86,11.33c-.2.21-.46.31-.72.31Z"/>
          </g>
        </g>
      </g>
    </g>
  </g>
</svg>